<?xml version="1.0" encoding="UTF-8"?>
<svg width="14px" height="14px" viewBox="0 0 14 14" version="1.1" xmlns="http://www.w3.org/2000/svg" xmlns:xlink="http://www.w3.org/1999/xlink">
    <title>icon_xzwj</title>
    <g id="报表配置0511" stroke="none" stroke-width="1" fill="none" fill-rule="evenodd">
        <g id="03-2文件管理-新增" transform="translate(-680.000000, -613.000000)">
            <g id="编组-48" transform="translate(560.000000, 310.000000)">
                <g id="编组-30" transform="translate(120.000000, 123.000000)">
                    <g id="编组-29备份-3" transform="translate(0.000000, 172.000000)">
                        <g id="icon_xzwj" transform="translate(0.000000, 8.000000)">
                            <rect id="矩形"  fill-rule="nonzero" opacity="0" x="0" y="0" width="14" height="14"></rect>
                            <rect id="矩形" fill-opacity="0.3" fill="#2275FF" x="0" y="6" width="8" height="8" rx="2"></rect>
                            <g id="移动巡检" fill-rule="nonzero">
                                <g id="文件夹">
                                    <rect id="矩形"  opacity="0" x="0" y="0" width="14" height="14"></rect>
                                    <path d="M12.46875,2.84375 L5.8498125,2.84375 L5.1611875,1.5561875 C5.00910207,1.27132479 4.71235651,1.09351297 4.3894375,1.09374976 L1.53125,1.09374976 C1.0486875,1.09374976 0.65625,1.4861875 0.65625,1.96875 L0.65625,12.03125 C0.65625,12.5138125 1.0486875,12.90625 1.53125,12.90625 L12.46875,12.90625 C12.9513125,12.90625 13.34375,12.5138125 13.34375,12.03125 L13.34375,3.71875 C13.34375,3.2361875 12.9513125,2.84375 12.46875,2.84375 Z M1.53125,1.96875 L4.3894375,1.96875 L5.32525,3.71875 L12.46875,3.71875 L12.46875,5.058375 C12.4630625,5.058375 12.4578125,5.056625 12.452125,5.056625 L1.5483125,5.056625 C1.542625,5.056625 1.537375,5.058375 1.53125,5.058375 L1.53125,1.96875 Z M1.53125,12.03125 L1.53125,10.71875 L1.5483125,5.931625 L12.46875,5.94825 L12.46875,10.71875 L12.469625,10.71875 L12.469625,12.03125 L1.53125,12.03125 Z" id="形状" fill="#192429"></path>
                                </g>
                            </g>
                        </g>
                    </g>
                </g>
            </g>
        </g>
    </g>
</svg>